<?xml version="1.0" standalone="no"?>
<!DOCTYPE svg PUBLIC "-//W3C//DTD SVG 20010904//EN"
 "http://www.w3.org/TR/2001/REC-SVG-20010904/DTD/svg10.dtd">
<svg version="1.0" xmlns="http://www.w3.org/2000/svg"
 width="200.000000pt" height="200.000000pt" viewBox="0 0 200.000000 200.000000"
 preserveAspectRatio="xMidYMid meet">

<g transform="translate(0.000000,200.000000) scale(0.100000,-0.100000)"
fill="#000000" stroke="none">
<path d="M862 1404 c-56 -28 -90 -65 -119 -130 -15 -34 -18 -81 -21 -371 l-4
-333 524 0 c486 0 526 2 563 19 51 23 118 98 133 149 8 27 12 144 12 366 l0
326 -518 0 -518 0 -52 -26z m1006 -351 c-3 -301 -3 -309 -26 -340 -12 -17 -42
-41 -65 -52 -42 -20 -57 -21 -510 -21 l-467 0 0 283 c1 347 8 374 105 418 37
17 75 19 503 19 l463 0 -3 -307z"/>
<path d="M913 1213 c-5 -13 21 -43 101 -119 l108 -101 -97 -95 c-95 -93 -109
-119 -70 -126 12 -3 49 27 110 88 65 65 97 90 106 84 8 -4 31 -21 52 -38 28
-22 50 -30 92 -34 71 -6 94 1 150 43 l46 36 77 -69 c42 -39 86 -79 96 -91 23
-25 44 -27 53 -5 4 11 -24 45 -91 113 l-97 98 68 56 c139 114 184 177 126 177
-10 0 -85 -61 -167 -136 -156 -141 -188 -164 -231 -164 -49 0 -91 28 -240 164
-82 75 -158 136 -168 136 -10 0 -21 -8 -24 -17z"/>
<path d="M237 1244 c-14 -14 -7 -43 12 -54 11 -6 91 -10 188 -10 179 0 209 7
201 46 -3 18 -15 19 -199 22 -107 1 -198 -1 -202 -4z"/>
<path d="M54 1015 c-4 -8 -4 -22 0 -30 4 -13 35 -15 190 -15 154 0 185 2 190
15 3 8 3 22 0 30 -9 22 -372 22 -380 0z"/>
<path d="M266 807 c-10 -7 -16 -22 -14 -33 3 -18 13 -19 143 -19 130 0 140 1
143 19 7 36 -24 46 -143 46 -76 0 -117 -4 -129 -13z"/>
</g>
</svg>
