<svg xmlns="http://www.w3.org/2000/svg" version="1.1" xmlns:xlink="http://www.w3.org/1999/xlink" xmlns:svgjs="http://svgjs.dev/svgjs" width="1440" height="560" preserveAspectRatio="none" viewBox="0 0 1440 560"><g mask="url(&quot;#SvgjsMask1047&quot;)" fill="none"><path d="M -144.0149550539154,119 C -48.01,186.8 143.99,444.4 335.9850449460846,458 C 527.99,471.6 623.99,220.8 815.9850449460846,187 C 1007.99,153.2 1103.99,296.2 1295.9850449460846,289 C 1487.99,281.8 1747.18,135 1775.9850449460846,151 C 1804.79,167 1507.2,325.4 1440,369" stroke="rgba(35, 194, 91, 0.44)" stroke-width="2"></path><path d="M -844.3461683943693,485 C -748.35,404.4 -556.35,86 -364.34616839436933,82 C -172.35,78 -76.35,459.2 115.65383160563067,465 C 307.65,470.8 403.65,123 595.6538316056307,111 C 787.65,99 906.78,394.2 1075.6538316056308,405 C 1244.52,415.8 1367.13,213 1440,165" stroke="rgba(35, 194, 91, 0.44)" stroke-width="2"></path><path d="M -741.2902128619637,387 C -645.29,338 -453.29,123.6 -261.2902128619637,142 C -69.29,160.4 26.71,487.4 218.7097871380363,479 C 410.71,470.6 506.71,119.4 698.7097871380363,100 C 890.71,80.6 1030.45,356.8 1178.7097871380363,382 C 1326.97,407.2 1387.74,257.2 1440,226" stroke="rgba(35, 194, 91, 0.44)" stroke-width="2"></path><path d="M -818.9990105738289,310 C -723,285.8 -531,172.6 -338.99901057382885,189 C -147,205.4 -51,378.2 141.00098942617115,392 C 333,405.8 429,243 621.0009894261711,258 C 813,273 937.2,462.8 1101.0009894261711,467 C 1264.8,471.2 1372.2,316.6 1440,279" stroke="rgba(35, 194, 91, 0.44)" stroke-width="2"></path><path d="M -572.1741152235697,427 C -476.17,366.6 -284.17,133.8 -92.17411522356969,125 C 99.83,116.2 195.83,372.8 387.8258847764303,383 C 579.83,393.2 675.83,191.6 867.8258847764303,176 C 1059.83,160.4 1233.39,306 1347.8258847764303,305 C 1462.26,304 1421.57,197.8 1440,171" stroke="rgba(35, 194, 91, 0.44)" stroke-width="2"></path></g><defs><mask id="SvgjsMask1047"><rect width="1440" height="560" fill="#ffffff"></rect></mask></defs></svg>